# xmcd
#
# Track frame offsets: 
#        150
#        18921
#        36051
#        51739
#        72422
#        92116
#        113835
#        138199
#        164535
#        188875
#        209485
#
# Disc length: 2998 seconds
#
# Revision: 3
# Processed by: cddbd v1.5.2PL0 Copyright (c) Steve Scherf et al.
# Submitted via: ExactAudioCopy v0.95b4
#
DISCID=a00bb40b
DTITLE=Detonautas Roque Clube - Detonautas Roque Clube
DYEAR=2002
DGENRE=Alternative Rock
TTITLE0=No Way Out
TTITLE1=Outro Lugar
TTITLE2=Quando O Sol Se For
TTITLE3=Ei Peraê
TTITLE4=Olhos Certos
TTITLE5=Nem Me Lembro Mais
TTITLE6=O Bem E O Mal
TTITLE7=Ladrão De Gravata
TTITLE8=Mais Além
TTITLE9=Que Diferença Faz
TTITLE10=Outro Lugar [Versão Acústica]
EXTD=
EXTT0=
EXTT1=
EXTT2=
EXTT3=
EXTT4=
EXTT5=
EXTT6=
EXTT7=
EXTT8=
EXTT9=
EXTT10=
PLAYORDER=
